<?xml version="1.0" encoding="UTF-8" standalone="no"?>
<!-- Created with Inkscape (http://www.inkscape.org/) -->
<svg
   xmlns:svg="http://www.w3.org/2000/svg"
   xmlns="http://www.w3.org/2000/svg"
   version="1.0"
   width="744.09448"
   height="607.67712"
   id="svg2">
  <defs
     id="defs4" />
  <g
     transform="translate(521.51257,282.71432)"
     id="layer1">
    <g
       transform="translate(17.716531,17.673662)"
       id="g3835">
      <path
         d="M 70.430819,121.39098 L 68.676509,122.53118 L -403.7436,122.50388 L -405.51992,121.32518 C -457.50301,86.885376 -487.99384,38.388976 -487.99384,-19.887824 C -487.99384,-130.55332 -347.78584,-250.17142 -166.66737,-250.17142 C 14.445659,-250.17142 154.6388,-130.40532 154.6388,-19.887824 C 154.6388,38.953676 123.55428,86.868876 70.430819,121.39098 z "
         style="fill:#ffffff;fill-rule:nonzero;stroke:none"
         id="path3425" />
      <path
         d="M 147.01849,-19.438124 C 147.01849,-124.35282 11.934749,-242.61692 -167.1772,-242.61692 C -346.29473,-242.61692 -481.38879,-124.49542 -481.38879,-19.438124 C -481.38879,36.009676 -452.50321,82.466576 -402.09346,115.85928 L 66.044949,115.89218 C 117.63341,82.373476 147.01849,36.492176 147.01849,-19.438124 z M 187.14885,-19.438124 C 187.14885,60.203076 141.91993,116.16078 77.557729,156.01707 L -413.79819,155.98415 C -477.42292,115.92508 -521.51257,59.292976 -521.51257,-19.438124 C -521.51257,-156.38032 -357.28118,-282.71432 -167.1772,-282.71432 C 22.937699,-282.71432 187.14885,-156.22142 187.14885,-19.438124 z "
         style="fill:#000000;fill-rule:nonzero;stroke:none"
         id="path3427" />
      <path
         d="M -18.091731,88.403876 L -84.339801,88.403876 L -84.339801,-207.38212 C -84.339801,-207.38212 -44.335421,-199.34512 -11.781611,-182.93112 L -11.781611,-144.16582 C -11.781611,-144.16582 -32.965251,-153.59532 -47.838711,-156.30362 L -47.838711,-81.629424 C -47.838711,-81.629424 -5.0219915,-71.711924 18.409359,-60.895324 L 18.409359,-27.096924 C 18.409359,-27.096924 -23.952341,-42.869524 -47.838711,-46.027324 L -47.838711,57.176876 L -18.091731,57.176876 L -18.091731,88.403876 z "
         style="fill:#000000;fill-rule:nonzero;stroke:none"
         id="path3429" />
      <path
         d="M 81.724359,71.458176 L 63.303909,17.325976 L 32.054769,88.392976 L -5.8607315,88.392976 L 47.240709,-34.876324 L 4.5062685,-176.00152 C 4.5062685,-176.00152 27.285189,-164.98202 51.516899,-146.31492 L 68.621639,-87.522824 L 81.833979,-117.94952 C 81.833979,-117.94952 98.390439,-99.709924 105.68191,-85.735524 L 84.246179,-33.089124 L 108.80687,37.851676 C 108.80687,37.851676 99.541799,55.351276 81.724359,71.458176 z "
         style="fill:#000000;fill-rule:nonzero;stroke:none"
         id="path3431" />
      <path
         d="M -457.32209,-33.560624 C -465.01929,34.562376 -410.8596,75.750876 -410.8596,75.750876 L -393.94682,44.556676 C -408.22272,28.049376 -418.4855,3.0665761 -418.4855,3.0665761 L -383.68391,-14.778324 L -383.68391,88.700076 L -348.43828,88.700076 L -348.43828,-170.38212 C -400.74482,-140.30632 -450.56786,-93.339424 -457.32209,-33.560624 z M -383.23993,-54.486524 L -420.71684,-34.410424 C -418.04138,-72.780924 -383.23993,-100.44452 -383.23993,-100.44452 L -383.23993,-54.486524 z "
         style="fill:#000000;fill-rule:nonzero;stroke:none"
         id="path3433" />
      <path
         d="M -226.88488,-95.598224 L -226.88488,-190.68852 C -226.88488,-190.68852 -225.33344,-198.53922 -230.03725,-203.30872 C -235.08094,-208.41282 -244.0115,-207.81522 -244.0115,-207.81522 C -285.56187,-199.77822 -323.77895,-180.39282 -323.77895,-180.39282 L -323.77895,88.403876 L -286.82277,88.403876 L -286.82277,-46.027324 C -286.82277,-46.027324 -282.38216,-48.159924 -274.20261,-49.629224 C -265.40347,-51.213624 -262.9364,-42.869524 -262.9364,-42.869524 L -262.9364,88.403876 L -226.88488,88.403876 C -226.88488,88.403876 -226.88488,-50.078724 -226.88488,-60.895324 C -226.88488,-71.711924 -239.95468,-77.122924 -239.95468,-77.122924 C -226.43531,-80.724724 -226.88488,-95.598224 -226.88488,-95.598224 z M -268.34751,-89.737624 C -274.20261,-87.484524 -286.82277,-83.427524 -286.82277,-83.427524 L -286.82277,-155.08662 L -271.05018,-162.29582 C -271.05018,-162.29582 -263.39142,-165.90312 -263.39142,-158.69392 C -263.39142,-151.47922 -263.39142,-96.952324 -263.39142,-96.952324 C -263.39142,-96.952324 -262.4869,-91.990824 -268.34751,-89.737624 z "
         style="fill:#000000;fill-rule:nonzero;stroke:none"
         id="path3435" />
      <path
         d="M -129.9251,-213.22082 C -161.89778,-217.82042 -203.38229,-213.22082 -203.38229,-213.22082 L -203.38229,88.403876 C -203.38229,88.403876 -134.43142,88.403876 -122.26635,88.403876 C -107.84239,88.403876 -107.84239,67.543776 -107.84239,67.543776 C -107.84239,67.543776 -107.84239,-161.84622 -107.84239,-185.73262 C -107.84239,-209.61892 -129.9251,-213.22082 -129.9251,-213.22082 z M -144.34893,45.461176 C -144.34893,45.461176 -145.19871,55.373176 -150.65359,55.373176 C -155.16011,55.373176 -167.33071,55.373176 -167.33071,55.373176 L -167.33071,-179.87202 L -150.65359,-179.87202 C -150.65359,-179.87202 -144.34893,-179.42242 -144.34893,-170.85912 C -144.34893,-162.29582 -144.34893,45.461176 -144.34893,45.461176 z "
         style="fill:#000000;fill-rule:nonzero;stroke:none"
         id="path3437" />
      <path
         d="M -486.31077,236.86995 L -500.33116,236.86995 L -514.88557,288.81439 L -504.27022,288.81439 L -500.8657,275.79585 L -485.50922,275.79585 L -482.10477,288.81439 L -471.48942,288.81439 L -486.31077,236.86995 z M -487.57989,267.58343 L -498.79563,267.58343 L -493.32156,245.81813 L -493.05402,245.81813 L -487.57989,267.58343 z "
         style="fill:#000000;fill-rule:evenodd;stroke:none"
         id="path3439" />
      <path
         d="M -437.2624,236.86995 L -437.2624,269.45288 C -437.2624,278.13182 -439.86097,280.80281 -445.14045,280.80281 C -450.41434,280.80281 -453.0185,278.13182 -453.0185,269.45288 L -453.0185,236.86995 L -463.4294,236.86995 L -463.4294,272.79102 C -463.4294,283.47327 -456.08858,289.61548 -445.14045,289.61548 C -434.18679,289.61548 -426.84604,283.47327 -426.84604,272.79102 L -426.84604,236.86995 L -437.2624,236.86995 z "
         style="fill:#000000;fill-rule:nonzero;stroke:none"
         id="path3441" />
      <path
         d="M -381.04696,250.49125 C -381.91311,241.74528 -388.52473,236.06959 -397.33484,236.06959 C -406.34776,236.06959 -414.22581,242.747 -414.22581,252.09375 C -414.22581,269.78672 -389.79116,263.77811 -389.79116,274.19282 C -389.79116,278.66583 -393.19568,280.80281 -397.26906,280.80281 C -402.20859,280.80281 -404.47831,277.53097 -405.41576,273.12434 L -415.8266,274.65994 C -414.22581,284.80876 -407.08234,289.61548 -397.20328,289.61548 C -384.3857,289.61548 -379.57774,280.13506 -379.57774,273.79208 C -379.57774,254.43024 -404.01225,261.10712 -404.01225,250.89205 C -404.01225,247.35321 -401.07373,244.88345 -397.66921,244.88345 C -393.46426,244.88345 -391.4578,248.55491 -390.46009,252.16065 L -381.04696,250.49125 z "
         style="fill:#000000;fill-rule:nonzero;stroke:none"
         id="path3443" />
      <path
         d="M -312.84172,270.92158 C -312.44157,276.79691 -313.91086,281.40313 -321.99171,281.40313 C -330.93878,281.40313 -332.73705,269.51971 -332.73705,262.84342 C -332.73705,256.16654 -330.93878,244.2826 -321.99171,244.2826 C -315.51165,244.2826 -313.04458,248.55491 -312.17837,253.56291 L -302.83103,252.16065 C -303.89459,242.27929 -311.77264,236.06959 -321.99171,236.06959 C -336.8103,236.06959 -343.42199,249.75719 -343.42199,262.84342 C -343.42199,275.92853 -336.8103,289.61548 -321.99171,289.61548 C -318.51596,289.61548 -314.04782,288.41385 -311.10936,285.14215 L -310.10606,288.81439 L -302.83103,288.81439 L -302.83103,262.70969 L -321.8547,262.70969 L -321.8547,270.92158 L -312.84172,270.92158 z "
         style="fill:#000000;fill-rule:nonzero;stroke:none"
         id="path3445" />
      <path
         d="M -264.88818,236.86995 L -264.88818,269.45288 C -264.88818,278.13182 -267.49221,280.80281 -272.76624,280.80281 C -278.04013,280.80281 -280.64429,278.13182 -280.64429,269.45288 L -280.64429,236.86995 L -291.06058,236.86995 L -291.06058,272.79102 C -291.06058,283.47327 -283.71976,289.61548 -272.76624,289.61548 C -261.8181,289.61548 -254.47728,283.47327 -254.47728,272.79102 L -254.47728,236.86995 L -264.88818,236.86995 z "
         style="fill:#000000;fill-rule:nonzero;stroke:none"
         id="path3447" />
      <path
         d="M -208.00941,236.86995 L -245.39859,236.86995 L -245.39859,245.68486 L -231.90669,245.68486 L -231.90669,288.81439 L -221.49578,288.81439 L -221.49578,245.68486 L -208.00941,245.68486 L -208.00941,236.86995 z "
         style="fill:#000000;fill-rule:nonzero;stroke:none"
         id="path3449" />
      <path
         d="M -166.39326,236.86995 L -198.71141,236.86995 L -198.71141,288.81439 L -165.1269,288.81439 L -165.1269,280.00139 L -188.29499,280.00139 L -188.29499,266.91562 L -170.13221,266.91562 L -170.13221,258.10282 L -188.29499,258.10282 L -188.29499,245.68486 L -166.39326,245.68486 L -166.39326,236.86995 z "
         style="fill:#000000;fill-rule:nonzero;stroke:none"
         id="path3451" />
      <path
         d="M -128.51607,274.12645 L -128.64763,274.12645 L -136.3284,236.86995 L -153.41665,236.86995 L -153.41665,288.81439 L -143.00029,288.81439 L -143.00029,247.42057 L -142.86872,247.42057 L -133.2528,288.81439 L -123.90545,288.81439 L -114.29504,247.42057 L -114.15796,247.42057 L -114.15796,288.81439 L -103.74705,288.81439 L -103.74705,236.86995 L -120.83536,236.86995 L -128.51607,274.12645 z "
         style="fill:#000000;fill-rule:nonzero;stroke:none"
         id="path3453" />
      <path
         d="M -35.755721,270.92158 C -35.355501,276.79691 -36.824791,281.40313 -44.900191,281.40313 C -53.847321,281.40313 -55.650981,269.51971 -55.650981,262.84342 C -55.650981,256.16654 -53.847321,244.2826 -44.900191,244.2826 C -38.425591,244.2826 -35.953061,248.55491 -35.086921,253.56291 L -25.739571,252.16065 C -26.808591,242.27929 -34.686641,236.06959 -44.900191,236.06959 C -59.724301,236.06959 -66.330471,249.75719 -66.330471,262.84342 C -66.330471,275.92853 -59.724301,289.61548 -44.900191,289.61548 C -41.429891,289.61548 -36.956361,288.41385 -34.017841,285.14215 L -33.020001,288.81439 L -25.739571,288.81439 L -25.739571,262.70969 L -44.768631,262.70969 L -44.768631,270.92158 L -35.755721,270.92158 z "
         style="fill:#000000;fill-rule:nonzero;stroke:none"
         id="path3455" />
      <path
         d="M -13.705931,236.86995 L -13.705931,288.81439 L -3.2895715,288.81439 L -3.2895715,267.24953 L 4.6542585,267.24953 L 14.001539,288.81439 L 24.949679,288.81439 L 14.599169,265.11308 C 19.878589,262.97656 23.414669,257.70208 23.414669,252.02737 C 23.414669,245.41739 18.743719,236.86995 6.7924185,236.86995 L -13.705931,236.86995 z M -3.2895715,258.43613 L -3.2895715,245.68486 L 0.58094855,245.68486 C 5.7233385,245.68486 12.735119,245.08349 12.735119,252.22748 C 12.735119,258.70366 5.7891285,258.43613 1.2497485,258.43613 L -3.2895715,258.43613 z "
         style="fill:#000000;fill-rule:evenodd;stroke:none"
         id="path3457" />
      <path
         d="M 61.494729,236.86995 L 61.494729,269.45288 C 61.494729,278.13182 58.863239,280.80281 53.600179,280.80281 C 48.337199,280.80281 45.705699,278.13182 45.705699,269.45288 L 45.705699,236.86995 L 35.289279,236.86995 L 35.289279,272.79102 C 35.289279,283.47327 42.635619,289.61548 53.600179,289.61548 C 64.564819,289.61548 71.856149,283.47327 71.856149,272.79102 L 71.856149,236.86995 L 61.494729,236.86995 z "
         style="fill:#000000;fill-rule:nonzero;stroke:none"
         id="path3459" />
      <path
         d="M 84.026879,236.86995 L 84.026879,288.81439 L 94.443239,288.81439 L 94.443239,247.08673 L 94.607729,247.08673 L 114.23434,288.81439 L 125.36333,288.81439 L 125.36333,236.86995 L 114.94704,236.86995 L 114.94704,271.12162 L 114.83736,271.12162 L 99.267629,236.86995 L 84.026879,236.86995 z "
         style="fill:#000000;fill-rule:nonzero;stroke:none"
         id="path3461" />
      <path
         d="M 137.86304,236.86995 L 137.86304,288.81439 L 154.1454,288.81439 C 169.66026,288.81439 177.33551,277.46407 177.33551,262.84342 C 177.33551,248.08779 170.31815,236.86995 150.58191,236.86995 L 137.86304,236.86995 z M 148.2794,280.00139 L 148.2794,245.68486 L 152.22661,245.68486 C 161.98507,245.68486 166.64504,250.75878 166.64504,261.64113 C 166.64504,274.79367 161.65616,280.00139 153.37796,280.00139 L 148.2794,280.00139 z "
         style="fill:#000000;fill-rule:evenodd;stroke:none"
         id="path3463" />
    </g>
  </g>
</svg>
