<?xml version="1.0" encoding="UTF-8" standalone="no"?>
<!-- Created with Inkscape (http://www.inkscape.org/) -->
<svg
   xmlns:svg="http://www.w3.org/2000/svg"
   xmlns="http://www.w3.org/2000/svg"
   xmlns:inkscape="http://www.inkscape.org/namespaces/inkscape"
   version="1.0"
   width="708.66138"
   height="622.55902"
   id="svg2">
  <defs
     id="defs4">
    <inkscape:perspective
       id="perspective10" />
    <clipPath
       id="clipPath2443">
      <path
         d="M 414.57,787.28 L 566.715,787.28 L 566.715,813.719 L 414.57,813.719 L 414.57,787.28 z"
         id="path2445" />
    </clipPath>
    <clipPath
       id="clipPath2411">
      <path
         d="M 0.015,840.99 L 595.005,840.99 L 595.005,0 L 0.015,0 L 0.015,840.99 z"
         id="path2413" />
    </clipPath>
    <clipPath
       id="clipPath2403">
      <path
         d="M -1,843 L 596,843 L 596,-1 L -1,-1 L -1,843 z"
         id="path2405" />
    </clipPath>
    <inkscape:perspective
       id="perspective2395" />
    <clipPath
       id="clipPath2579">
      <path
         d="M 1032.52,689.763 L 1174.252,689.763 L 1174.252,831.495 L 1032.52,831.495 L 1032.52,689.763 z"
         id="path2581" />
    </clipPath>
    <clipPath
       id="clipPath2571">
      <path
         d="M 0,0 L 1218.898,0 L 1218.898,841.89 L 0,841.89 L 0,0 z"
         id="path2573" />
    </clipPath>
    <inkscape:perspective
       id="perspective2563" />
  </defs>
  <g
     transform="translate(-967.68521,140.34323)"
     id="layer1">
    <g
       id="g2773">
      <path
         d="M 1005.4884,442.25511 L 1493.4286,442.25511 L 1636.436,-102.88692 L 1152.6939,-102.88692 L 1005.4884,442.25511 z"
         id="path2583"
         style="fill:#ffffff;fill-opacity:1;fill-rule:nonzero;stroke:none" />
      <path
         d="M 182.25,35.34375 L 35.4375,587.21875 L 527.71875,587.21875 L 673.21875,35.34375 L 667.03125,35.34375 L 188.3125,35.34375 L 182.25,35.34375 z M 186.6875,41.53125 L 665.375,41.53125 L 521,580.34375 L 44.25,580.34375 L 186.6875,41.53125 z"
         transform="translate(967.68521,-140.34323)"
         id="path2585"
         style="fill:#c8094e;fill-opacity:1;fill-rule:nonzero;stroke:none" />
      <path
         d="M 197.15625,52.34375 L 85.53125,470.15625 L 228.25,470.15625 L 427.28125,470.15625 L 540.625,470.15625 L 652.28125,52.34375 L 427.28125,52.34375 L 228.25,52.34375 L 197.15625,52.34375 z M 289.15625,184.15625 L 326.1875,184.15625 L 228.25,314.125 L 145.09375,424.15625 L 130.1875,393.84375 L 228.25,264.5625 L 289.15625,184.15625 z M 335.03125,184.15625 L 372.84375,184.15625 L 373.5,393.1875 L 427.28125,393.1875 L 456.6875,393.1875 L 427.28125,330.46875 L 390.5,251.78125 L 391.15625,251.125 L 392.5,248.46875 L 394.46875,245.0625 L 397.21875,240.96875 L 399.875,236.21875 L 403.28125,231.59375 L 406.0625,226.875 L 408.6875,222.78125 L 410,224.75 L 412.78125,230.15625 L 416.875,239 L 422.28125,249.78125 L 427.28125,259.40625 L 429,262.71875 L 435.71875,276.8125 L 443.21875,292.375 L 450.625,308.71875 L 458.125,323.46875 L 465.5,339.03125 L 472.21875,353.90625 L 478.4375,366.84375 L 483.84375,377.65625 L 487.78125,385.8125 L 490.5625,391.21875 L 491.21875,393.1875 L 498.71875,393.1875 L 427.28125,243.71875 L 413.4375,214.59375 L 427.28125,192.3125 L 432.4375,184.15625 L 573.0625,184.15625 L 565.6875,214.59375 L 447.3125,214.59375 L 450.625,222.125 L 563.5625,222.125 L 555.53125,252.5625 L 465.5,252.5625 L 531.8125,393.84375 L 512.15625,424.15625 L 427.28125,424.15625 L 340.4375,424.15625 L 306.6875,393.1875 L 306.6875,274.84375 L 228.25,376.59375 L 215.34375,393.1875 L 228.25,393.1875 L 288.5,393.1875 L 280.3125,424.15625 L 228.25,424.15625 L 191.75,424.15625 L 186.34375,431.5625 L 228.25,431.5625 L 278.34375,431.5625 L 270.15625,462 L 228.25,462 L 163.28125,462 L 149.1875,432.34375 L 149.84375,430.90625 L 151.8125,428.25 L 155.90625,423.5 L 160.65625,417.4375 L 166.0625,409.28125 L 172.78125,400.4375 L 180.28125,391.21875 L 187.65625,381.0625 L 195.84375,369.46875 L 204.53125,358.65625 L 213.375,347.1875 L 221.53125,335.71875 L 228.25,326.625 L 229.5625,324.90625 L 237.75,314.125 L 245.125,304.625 L 252,295.78125 L 335.03125,184.15625 z M 343.71875,225.40625 L 336.34375,234.25 L 336.34375,393.1875 L 343.71875,393.1875 L 343.71875,225.40625 z M 185.6875,424.8125 L 186.34375,425.5 L 185.6875,424.8125 z M 345.84375,430.90625 L 427.28125,430.90625 L 508.875,430.90625 L 489.875,462 L 427.28125,462 L 378.25,462 L 345.84375,430.90625 z"
         transform="translate(967.68521,-140.34323)"
         id="path2587"
         style="fill:#c8094e;fill-opacity:1;fill-rule:nonzero;stroke:none" />
      <path
         d="M 1089.0524,426.56974 L 1081.6737,426.56974 L 1084.3066,414.31101 L 1092.4791,414.31101 L 1089.0524,426.56974 z"
         id="path2593"
         style="fill:#c8094e;fill-opacity:1;fill-rule:nonzero;stroke:none" />
      <path
         d="M 1108.6899,400.8672 L 1108.0303,403.50565 L 1106.7166,411.01853 L 1108.0303,415.10478 L 1110.0091,417.73764 L 1113.4358,418.39725 L 1118.1816,417.73764 L 1121.4741,415.76439 L 1124.9007,411.01853 L 1127.6733,404.95345 L 1128.3274,398.7598 L 1126.8796,394.1481 L 1123.5871,390.06185 L 1119.5008,385.97561 L 1116.0742,381.88936 L 1112.7761,377.1435 L 1111.3283,371.07842 L 1112.7761,362.90593 L 1114.755,357.50605 L 1116.8624,352.76019 L 1119.5008,348.80251 L 1122.2679,345.38147 L 1125.5603,342.74302 L 1128.987,340.63561 L 1132.4136,339.976 L 1136.3713,339.31638 L 1140.4575,339.976 L 1143.2245,340.63561 L 1145.8574,342.74302 L 1147.1766,345.38147 L 1147.9704,348.80251 L 1147.9704,352.76019 L 1147.1766,358.29423 L 1145.8574,364.35931 L 1138.4787,364.35931 L 1139.7979,357.50605 L 1139.1383,352.76019 L 1137.0309,350.12174 L 1133.0732,348.80251 L 1129.6466,349.46212 L 1126.2199,351.44096 L 1122.9275,355.52721 L 1120.8145,361.59229 L 1120.1605,367.65179 L 1122.2679,372.39764 L 1124.9007,375.82428 L 1128.987,379.91052 L 1133.0732,383.99677 L 1135.7117,388.60847 L 1137.0309,395.46173 L 1135.7117,404.16527 L 1133.7328,410.35892 L 1130.9658,415.76439 L 1128.3274,419.85064 L 1125.5603,423.14311 L 1121.4741,425.91013 L 1118.1816,427.22936 L 1114.755,428.54858 L 1110.6687,428.54858 L 1105.2633,427.88897 L 1101.177,425.25052 L 1099.2038,421.82388 L 1098.5442,417.73764 L 1098.5442,412.99178 L 1098.5442,408.25151 L 1099.8578,404.16527 L 1100.5174,400.8672 L 1108.6899,400.8672 z"
         id="path2595"
         style="fill:#c8094e;fill-opacity:1;fill-rule:nonzero;stroke:none" />
      <path
         d="M 1140.4575,426.56974 L 1133.0732,426.56974 L 1136.3713,414.31101 L 1143.8842,414.31101 L 1140.4575,426.56974 z"
         id="path2597"
         style="fill:#c8094e;fill-opacity:1;fill-rule:nonzero;stroke:none" />
      <path
         d="M 1199.3699,365.01892 L 1200.0295,361.59229 L 1200.6891,357.50605 L 1200.6891,354.8676 L 1200.6891,352.10058 L 1200.0295,350.78135 L 1197.9221,349.46212 L 1196.6029,348.80251 L 1194.6296,348.80251 L 1190.5434,349.46212 L 1187.7708,351.44096 L 1185.7975,354.20798 L 1184.4783,355.52721 L 1183.8187,356.18682 L 1182.3709,358.95384 L 1180.392,364.35931 L 1177.625,373.05726 L 1171.5599,396.12134 L 1170.2463,402.84604 L 1168.9271,408.25151 L 1168.9271,412.33776 L 1169.5867,415.76439 L 1170.2463,417.07803 L 1172.2196,418.39725 L 1173.6673,419.05686 L 1175.6462,419.05686 L 1178.2846,418.39725 L 1182.3709,416.41841 L 1186.4571,411.01853 L 1189.8838,401.52682 L 1197.9221,401.52682 L 1195.2836,410.35892 L 1191.857,417.07803 L 1188.4304,421.82388 L 1185.1379,425.25052 L 1181.0517,427.22936 L 1178.2846,427.88897 L 1175.6462,428.54858 L 1173.6673,428.54858 L 1170.9003,428.54858 L 1167.4737,427.88897 L 1164.8408,426.56974 L 1162.7278,423.80272 L 1161.4142,419.85064 L 1160.7546,413.65139 L 1161.4142,405.61306 L 1164.1812,394.80212 L 1170.9003,370.41881 L 1173.6673,362.2519 L 1176.3058,355.52721 L 1179.0728,350.12174 L 1182.3709,345.38147 L 1185.7975,342.74302 L 1189.8838,340.63561 L 1193.97,339.31638 L 1197.9221,339.31638 L 1202.0083,339.976 L 1205.435,340.63561 L 1207.4138,342.74302 L 1208.7274,346.03549 L 1209.5212,349.46212 L 1209.5212,354.20798 L 1208.0734,358.95384 L 1206.7542,365.01892 L 1199.3699,365.01892 z"
         id="path2599"
         style="fill:#c8094e;fill-opacity:1;fill-rule:nonzero;stroke:none" />
      <path
         d="M 1232.8536,341.29522 L 1243.2621,341.29522 L 1246.6887,341.94925 L 1249.3272,343.40263 L 1251.4346,345.38147 L 1252.7538,348.14849 L 1253.4134,351.44096 L 1253.4134,354.8676 L 1252.7538,358.29423 L 1252.0942,362.2519 L 1249.3272,369.10517 L 1246.0291,375.16466 L 1241.2833,379.25091 L 1235.8834,381.88936 L 1237.8566,382.54897 L 1239.8355,383.99677 L 1241.2833,385.31599 L 1241.9429,387.29483 L 1241.9429,390.06185 L 1241.9429,394.1481 L 1241.2833,398.7598 L 1239.8355,404.16527 L 1239.1758,406.27267 L 1238.5162,408.90554 L 1237.8566,411.67815 L 1237.197,415.10478 L 1236.5374,418.39725 L 1236.5374,421.16427 L 1235.8834,424.46234 L 1235.8834,426.56974 L 1232.8536,426.56974 L 1232.8536,399.15668 L 1233.1108,398.10018 L 1233.1108,392.0351 L 1232.8536,391.24692 L 1232.8536,377.54039 L 1235.8834,376.48389 L 1239.1758,373.85103 L 1241.9429,369.10517 L 1243.9217,363.6997 L 1244.5813,358.95384 L 1244.5813,354.8676 L 1243.2621,352.10058 L 1239.8355,350.78135 L 1232.8536,350.78135 L 1232.8536,341.29522 z M 1218.2192,387.29483 L 1207.4138,426.56974 L 1200.0295,426.56974 L 1222.965,341.29522 L 1232.8536,341.29522 L 1232.8536,350.78135 L 1227.7109,350.78135 L 1220.9862,377.80311 L 1231.7971,377.80311 L 1232.8536,377.54039 L 1232.8536,391.24692 L 1231.7971,388.60847 L 1229.8183,387.29483 L 1227.0513,387.29483 L 1218.2192,387.29483 z M 1232.8536,426.56974 L 1232.8536,399.15668 L 1231.7971,402.18643 L 1231.1375,406.27267 L 1229.8183,410.35892 L 1229.0301,414.31101 L 1228.3705,417.73764 L 1227.7109,421.16427 L 1227.7109,423.80272 L 1227.7109,426.56974 L 1232.8536,426.56974 z"
         id="path2601"
         style="fill:#c8094e;fill-opacity:1;fill-rule:nonzero;stroke:none" />
      <path
         d="M 1381.1323,341.29522 L 1379.1535,350.78135 L 1363.5967,350.78135 L 1342.6456,426.56974 L 1335.1271,426.56974 L 1356.0894,350.78135 L 1339.873,350.78135 L 1342.6456,341.29522 L 1381.1323,341.29522 z"
         id="path2603"
         style="fill:#c8094e;fill-opacity:1;fill-rule:nonzero;stroke:none" />
      <path
         d="M 1372.9599,426.56974 L 1365.5755,426.56974 L 1388.5111,341.29522 L 1396.0239,341.29522 L 1372.9599,426.56974 z"
         id="path2605"
         style="fill:#c8094e;fill-opacity:1;fill-rule:nonzero;stroke:none" />
      <path
         d="M 1415.6614,343.5312 L 1418.9595,341.29522 L 1423.0457,339.976 L 1427.786,339.31638 L 1431.8722,339.976 L 1435.2989,341.29522 L 1437.9373,344.06224 L 1439.2565,347.35472 L 1440.7043,351.44096 L 1440.7043,356.18682 L 1439.9161,361.59229 L 1438.5969,367.65179 L 1431.2182,395.46173 L 1428.4456,403.50565 L 1425.8127,410.35892 L 1423.0457,416.41841 L 1419.7476,421.16427 L 1416.321,424.46234 L 1415.6614,424.85922 L 1415.6614,414.31101 L 1417.6402,411.67815 L 1419.7476,407.5919 L 1421.0669,402.18643 L 1423.0457,396.12134 L 1431.2182,366.99217 L 1432.5318,356.84643 L 1430.5586,351.44096 L 1427.786,349.46212 L 1425.1531,348.80251 L 1422.3861,349.46212 L 1418.2998,351.44096 L 1415.6614,354.60487 L 1415.6614,343.5312 z M 1394.0451,395.46173 L 1401.4294,367.65179 L 1403.4027,361.59229 L 1405.5157,356.18682 L 1408.1485,351.44096 L 1411.5752,347.35472 L 1415.0018,344.06224 L 1415.6614,343.5312 L 1415.6614,354.60487 L 1413.554,356.84643 L 1409.5963,366.99217 L 1401.4294,396.12134 L 1400.1102,402.18643 L 1399.4506,407.5919 L 1398.6624,411.67815 L 1399.4506,414.31101 L 1400.1102,416.41841 L 1401.4294,417.73764 L 1403.4027,419.05686 L 1406.1753,419.05686 L 1408.8081,419.05686 L 1410.9155,417.73764 L 1412.8944,416.41841 L 1415.6614,414.31101 L 1415.6614,424.85922 L 1412.2348,426.56974 L 1408.1485,427.88897 L 1403.4027,428.54858 L 1399.4506,427.88897 L 1396.0239,426.56974 L 1393.2569,424.46234 L 1391.9377,421.16427 L 1390.6185,416.41841 L 1390.6185,410.35892 L 1391.9377,403.50565 L 1394.0451,395.46173 z"
         id="path2607"
         style="fill:#c8094e;fill-opacity:1;fill-rule:nonzero;stroke:none" />
      <path
         d="M 1498.1689,341.29522 L 1475.1048,426.56974 L 1464.9591,426.56974 L 1461.661,352.76019 L 1441.3639,426.56974 L 1434.5107,426.56974 L 1457.5748,341.29522 L 1468.3857,341.29522 L 1471.8123,414.31101 L 1491.3156,341.29522 L 1498.1689,341.29522 z"
         id="path2609"
         style="fill:#c8094e;fill-opacity:1;fill-rule:nonzero;stroke:none" />
      <path
         d="M 1329.7273,340.63561 L 1329.7273,340.63561 L 1327.7484,340.63561 L 1310.4811,364.22515 L 1310.4811,376.48389 L 1324.9814,356.84643 L 1314.1761,396.12134 L 1310.4811,396.12134 L 1310.4811,405.61306 L 1312.1972,405.61306 L 1310.4811,411.94087 L 1310.4811,425.91013 L 1314.1761,425.91013 L 1337.106,340.63561 L 1329.7273,340.63561 z M 1310.4811,364.22515 L 1287.2829,396.12134 L 1287.2829,396.78096 L 1266.3262,426.56974 L 1275.0297,426.56974 L 1289.7872,405.61306 L 1310.4811,405.61306 L 1310.4811,396.12134 L 1295.8522,396.12134 L 1310.4811,376.48389 L 1310.4811,364.22515 z M 1310.4811,411.94087 L 1310.4811,425.91013 L 1306.7917,425.91013 L 1310.4811,411.94087 z"
         id="path2611"
         style="fill:#c8094e;fill-opacity:1;fill-rule:nonzero;stroke:none" />
      <path
         d="M 1073.2329,410.09619 L 1073.2329,426.56974 L 1068.7554,426.56974 L 1073.2329,410.09619 z"
         id="path2613"
         style="fill:#c8094e;fill-opacity:1;fill-rule:nonzero;stroke:none" />
      <path
         d="M 1091.8195,341.29522 L 1091.8195,341.29522 L 1090.3717,341.29522 L 1073.2329,364.88477 L 1073.2329,377.1435 L 1087.7332,357.50605 L 1076.9279,396.78096 L 1073.2329,396.78096 L 1073.2329,406.27267 L 1074.1608,406.27267 L 1073.2329,410.09619 L 1073.2329,426.56974 L 1076.2683,426.56974 L 1099.8578,341.29522 L 1091.8195,341.29522 z"
         id="path2615"
         style="fill:#c8094e;fill-opacity:1;fill-rule:nonzero;stroke:none" />
      <path
         d="M 1027.5016,426.56974 L 1036.9877,426.56974 L 1051.8849,406.27267 L 1073.2329,406.27267 L 1073.2329,396.78096 L 1058.604,396.78096 L 1073.2329,377.1435 L 1073.2329,364.88477 L 1027.5016,426.56974 z"
         id="path2617"
         style="fill:#c8094e;fill-opacity:1;fill-rule:nonzero;stroke:none" />
      <path
         d="M 1243.9217,426.56974 L 1267.6454,341.29522 L 1297.3056,341.29522 L 1294.533,350.78135 L 1272.3913,350.78135 L 1264.8784,378.46273 L 1285.8351,378.46273 L 1283.1966,387.29483 L 1262.2399,387.29483 L 1254.073,418.39725 L 1290.4468,418.39725 L 1288.6021,426.56974 L 1243.9217,426.56974 z"
         id="path2619"
         style="fill:#c8094e;fill-opacity:1;fill-rule:nonzero;stroke:none" />
      <path
         d="M 1595.7077,-48.580662 C 1595.7077,-41.861556 1593.332,-36.059199 1588.5862,-31.318931 C 1583.8459,-26.573072 1578.0435,-24.06878 1571.1903,-24.06878 L 1571.1903,-26.8358 C 1577.2554,-26.8358 1582.3925,-28.943207 1586.6129,-33.292179 C 1590.8277,-37.512583 1592.9407,-42.649737 1592.9407,-48.580662 C 1592.9407,-54.645746 1590.8277,-59.78849 1586.6129,-64.003304 C 1582.3925,-68.223708 1577.2554,-70.331115 1571.1903,-70.331115 L 1571.1903,-73.098135 C 1578.0435,-73.098135 1583.8459,-70.728001 1588.5862,-65.982142 C 1593.332,-61.107716 1595.7077,-55.439517 1595.7077,-48.580662 M 1571.1903,-47.395595 C 1571.8499,-47.132868 1572.3753,-47.0043 1572.7722,-46.735982 C 1573.8287,-46.07637 1575.2765,-44.103121 1577.2554,-40.676489 L 1579.7596,-36.327516 L 1583.9745,-36.327516 L 1581.3416,-41.073374 C 1580.8106,-41.995714 1580.1565,-43.046623 1579.2342,-44.23169 C 1578.3063,-45.550915 1577.6522,-46.344687 1577.1212,-46.735982 C 1576.7299,-47.132868 1575.9361,-47.529754 1574.8796,-48.055208 C 1577.2554,-48.452094 1579.1,-49.111707 1580.2851,-50.162615 C 1582.0012,-51.615999 1582.7894,-53.460679 1582.7894,-55.568086 C 1582.7894,-57.546924 1582.0012,-59.257446 1580.4193,-60.576671 C 1578.7031,-62.030056 1576.0703,-62.684078 1572.3753,-62.684078 L 1571.1903,-62.684078 L 1571.1903,-59.917059 C 1574.7511,-59.78849 1576.8585,-59.391604 1577.7808,-58.469264 C 1578.7031,-57.546924 1579.2342,-56.490426 1579.2342,-55.305359 C 1579.2342,-54.383019 1578.9659,-53.589248 1578.4404,-52.801066 C 1577.7808,-52.012885 1577.1212,-51.481841 1576.1989,-51.219114 C 1575.2765,-50.956386 1573.6946,-50.822228 1571.1903,-50.693659 L 1571.1903,-47.395595 z M 1571.1903,-24.06878 C 1564.4712,-24.06878 1558.6688,-26.573072 1553.9229,-31.318931 C 1549.1827,-36.059199 1546.807,-41.861556 1546.807,-48.580662 C 1546.807,-55.439517 1549.1827,-61.107716 1553.9229,-65.982142 C 1558.6688,-70.728001 1564.4712,-73.098135 1571.1903,-73.098135 L 1571.1903,-70.331115 C 1565.2593,-70.331115 1560.1222,-68.223708 1555.9018,-64.003304 C 1551.5528,-59.78849 1549.4454,-54.645746 1549.4454,-48.580662 C 1549.4454,-42.649737 1551.5528,-37.512583 1555.9018,-33.292179 C 1560.1222,-28.943207 1565.2593,-26.8358 1571.1903,-26.8358 L 1571.1903,-24.06878 z M 1571.1903,-62.684078 L 1562.0954,-62.684078 L 1562.0954,-36.327516 L 1565.5221,-36.327516 L 1565.5221,-47.663912 L 1567.7636,-47.663912 C 1569.0829,-47.663912 1570.2679,-47.663912 1571.1903,-47.395595 L 1571.1903,-50.693659 L 1568.9487,-50.693659 L 1565.5221,-50.693659 L 1565.5221,-59.917059 L 1570.5307,-59.917059 L 1571.1903,-59.917059 L 1571.1903,-62.684078 z"
         id="path2623"
         style="fill:#ffffff;fill-opacity:1;fill-rule:nonzero;stroke:none" />
    </g>
  </g>
</svg>
