<svg xmlns="http://www.w3.org/2000/svg" xmlns:xlink="http://www.w3.org/1999/xlink" viewBox="0 0 564.932 207.71" height="208" width="565"><defs><clipPath id="A"><path d="M0 374h841.9V0H0z"/></clipPath><path id="B" d="M269.414 132.78l-3.466-9.397h6.944zm-1.442 2.517h2.896l7.197-18.884h-2.656l-1.72 4.844h-8.512l-1.72-4.844h-2.694z"/><path id="C" d="M390.642 125.266q.822-.278 1.594-1.19.784-.91 1.568-2.504l2.593-5.16h-2.745l-2.416 4.844q-.936 1.897-1.82 2.517-.873.62-2.4.62h-2.783v-7.98h-2.555v18.884h5.768q3.238 0 4.832-1.353 1.594-1.353 1.594-4.085 0-1.783-.835-2.96-.822-1.176-2.403-1.632zm-6.4 7.93v-6.703h3.213q1.847 0 2.783.847.95.86.95 2.517 0 1.657-.95 2.492-.936.847-2.783.847z"/></defs><g transform="matrix(1.333333 0 0 -1.333333 -288.72234 362.92639)"><g clip-path="url(#A)" fill="#393536"><path d="M234.435 210.275v-6.604a6.95 6.95 0 0 1 6.945-6.945h8.698c8.284 0 12.6 3.38 12.6 10.247 0 6.813-4.306 10.247-12.6 10.247h-8.698a6.94 6.94 0 0 1-6.945-6.945m0-35.12v-12.63c0-4.2-3.404-7.604-7.604-7.604s-7.603 3.405-7.603 7.604v61.1c0 4.2 3.404 7.604 7.603 7.604h23.52c18.205 0 27.906-9.484 27.906-24.255 0-14.66-9.7-24.145-27.797-24.145h-8.352c-4.237 0-7.672-3.435-7.672-7.673m106.82-20.234h-43.06a6.98 6.98 0 0 0-6.976 6.977v62.353c0 3.853 3.123 6.976 6.976 6.976h42.623a6.98 6.98 0 0 0 6.977-6.976 6.98 6.98 0 0 0-6.977-6.977h-27.416a6.98 6.98 0 0 1-6.976-6.977v-2.943c0-3.853 3.123-6.976 6.976-6.976h25.508a6.98 6.98 0 0 0 6.977-6.977 6.98 6.98 0 0 0-6.977-6.977h-25.508c-3.853 0-6.976-3.123-6.976-6.976v-3.597a6.98 6.98 0 0 1 6.976-6.977h27.852a6.98 6.98 0 0 0 6.977-6.976 6.98 6.98 0 0 0-6.977-6.977m74.664 61.343l-8.17-1.728-.34-.085-8.328-2.467a4.4 4.4 0 0 1-3.143-4.455l1.312-24.07 1.347-25.6c.095-1.8-.912-3.474-2.55-4.225-2.55-1.17-6.227-2.708-7.9-2.708s-5.35 1.54-7.9 2.708c-1.64.75-2.646 2.426-2.55 4.225l1.347 25.6 1.312 24.07a4.4 4.4 0 0 1-3.143 4.455l-8.33 2.467-.338.085-8.17 1.728c-2.033.43-3.487 2.224-3.487 4.302v6.264c0 2.43 1.968 4.397 4.397 4.397h53.722c2.43 0 4.397-1.968 4.397-4.397v-6.264c0-2.078-1.454-3.872-3.487-4.302m33.927-29.95c-2.664 0-4.824-2.16-4.824-4.824v-21.746c0-2.664-2.16-4.825-4.824-4.825h-5.56c-2.664 0-4.824 2.16-4.824 4.825v66.657c0 2.665 2.16 4.825 4.824 4.825h5.56c2.664 0 4.824-2.16 4.824-4.825V205.15c0-2.665 2.16-4.825 4.824-4.825h.08a4.82 4.82 0 0 1 3.737 1.773l22.34 27.358c.916 1.122 2.288 1.773 3.737 1.773h6.28c4.125 0 6.346-4.84 3.658-7.97l-22.4-26.076a4.82 4.82 0 0 1 .037-6.331l24.57-27.92c2.742-3.116.53-8.012-3.622-8.012h-6.85a4.79 4.79 0 0 0-3.65 1.67l-24.258 28.056c-.916 1.06-2.248 1.67-3.65 1.67m107.61-31.394h-43.06a6.98 6.98 0 0 0-6.976 6.977v62.353a6.98 6.98 0 0 0 6.976 6.976h42.623a6.98 6.98 0 0 0 6.977-6.976 6.98 6.98 0 0 0-6.977-6.977h-27.416a6.98 6.98 0 0 1-6.976-6.977v-2.943a6.98 6.98 0 0 1 6.976-6.976H555.1a6.98 6.98 0 0 0 6.977-6.977 6.98 6.98 0 0 0-6.977-6.977h-25.508a6.98 6.98 0 0 1-6.976-6.976v-3.597a6.98 6.98 0 0 1 6.976-6.977h27.852a6.98 6.98 0 0 0 6.977-6.976 6.98 6.98 0 0 0-6.977-6.977m37.766 59.333V201.5c0-1.637 1.328-2.965 2.966-2.965h13.82c8.284 0 12.6 3.052 12.6 9.484 0 6.322-4.524 9.2-12.6 9.2h-13.82c-1.638 0-2.966-1.327-2.966-2.965m17.06 16.973c18.204 0 27.96-8.612 27.96-23.22 0-11.133-6.878-19.13-18.688-21.77-2.096-.47-2.97-2.983-1.662-4.687l16.793-21.858a2.97 2.97 0 0 0-2.352-4.771h-10.9c-.945 0-1.834.45-2.392 1.212l-20.462 27.934a2.96 2.96 0 0 1-2.39 1.212c-1.638 0-2.966-1.327-2.966-2.964v-24.43c0-1.638-1.327-2.965-2.965-2.965h-9.276c-1.638 0-2.966 1.327-2.966 2.965v70.376c0 1.638 1.328 2.965 2.966 2.965zm-255.313 5.887h62.362v-3.902h-62.362zm0 7.792h62.362v-5.85h-62.362zm61.495 27.28h-25.047a.87.87 0 0 1-.85-.696l-1.653-8.2c-.2-.942-1.542-.922-1.704.025l-1.395 8.16a.87.87 0 0 1-.855.721h-16.34c-.418 0-.777-.298-.852-.7l-1.4-7.52c-.173-.93-1.498-.952-1.7-.027l-1.654 7.573a.87.87 0 0 1-.847.682h-6.342c-.48 0-.867-.388-.867-.867V249.68c0-.48.388-.867.867-.867h60.628c.48 0 .867.388.867.867v21.655c0 .48-.388.867-.867.867"/></g><g fill="#ffffff"><path d="M216.542 135.296h3.807l4.82-12.85 4.844 12.85h3.807v-18.884h-2.492v16.582l-4.87-12.952H223.9l-4.87 12.952v-16.582h-2.48z"/><use xlink:href="#B"/><path d="M303.874 135.296h2.555v-16.733h9.195v-2.15h-11.75zm38.026 0h11.94v-2.15h-9.385v-5.6h8.993v-2.15h-8.993v-6.843h9.613v-2.15H341.9z"/><use xlink:href="#C"/><path d="M424.082 125.43v-6.918h4.098q2.062 0 3.048.847 1 .86 1 2.618 0 1.77-1 2.605-.987.847-3.048.847zm0 7.766v-5.692h3.782q1.872 0 2.783.696.923.708.923 2.15 0 1.43-.923 2.138-.9.708-2.783.708zm-2.555 2.1h6.526q2.922 0 4.503-1.214 1.58-1.214 1.58-3.453 0-1.733-.8-2.757-.8-1.024-2.378-1.277 1.885-.405 2.922-1.695 1.05-1.277 1.05-3.2 0-2.53-1.72-3.908-1.72-1.38-4.895-1.38h-6.78zm40.435 0h11.94v-2.15h-9.385v-5.6h8.993v-2.15h-8.993v-6.843h9.613v-2.15h-12.167zm42.342-2.1v-14.684h3.086q3.908 0 5.717 1.77 1.82 1.77 1.82 5.6 0 3.794-1.82 5.552-1.8 1.77-5.717 1.77zm-2.555 2.1H507q5.5 0 8.057-2.3 2.568-2.277 2.568-7.133 0-4.882-2.58-7.17-2.58-2.3-8.044-2.3h-5.25z"/><use xlink:href="#B" x="281.066"/><use xlink:href="#C" x="203.252"/><path d="M624.78 135.296h10.852v-2.15h-8.297v-5.565h7.488v-2.15h-7.488v-9.018h-2.555z"/></g></g></svg>