<svg xmlns="http://www.w3.org/2000/svg" data-name="Ebene 1" width="426" height="162"><rect id="backgroundrect" width="100%" height="100%" x="0" y="0" fill="none" stroke="none"/><defs id="defs4"><style id="style2">.cls-1{fill:#3c3c3b}</style></defs><g class="currentLayer" style=""><title>Layer 1</title><path class="cls-1" d="M20.430000000000007,97.03000083142533 v12.63 a7.6,7.6 0 0 1 -7.6,7.6 a7.6,7.6 0 0 1 -7.6,-7.6 v-61.1 a7.6,7.6 0 0 1 7.6,-7.6 h23.52 c18.2,0 27.91,9.48 27.91,24.25 s-9.7,24.15 -27.8,24.15 h-8.35 a7.67,7.67 0 0 0 -7.68,7.67 zm0,-35.12 v6.6 a7,7 0 0 0 6.95,6.95 h8.7 c8.28,0 12.59,-3.38 12.59,-10.25 s-4.3100000000000005,-10.25 -12.59,-10.25 h-8.7 a7,7 0 0 0 -6.95,6.95 z" id="path8" fill="#fff"/><path class="cls-1" d="M127.25999999999999,117.27000083142534 H84.19999999999999 a7,7 0 0 1 -7,-7 v-62.33 a7,7 0 0 1 7,-7 h42.62 a7,7 0 0 1 7,7 a7,7 0 0 1 -7,7 h-27.41 a7,7 0 0 0 -7,7 v2.94 a7,7 0 0 0 7,7 h25.51 a7,7 0 0 1 7,7 a7,7 0 0 1 -7,7 h-25.51 a7,7 0 0 0 -7,7 v3.6 a7,7 0 0 0 7,7 h27.85 a7,7 0 0 1 7,7 a7,7 0 0 1 -7,6.79 z" id="path10" fill="#fff"/><path class="cls-1" d="M201.92000000000002,55.92000083142531 l-8.17,1.73 l-0.3400000000000002,0.09000000000000004 l-8.33,2.45 a4.4,4.4 0 0 0 -3.14,4.46 l1.31,24.07 l1.35,25.61 a4.39,4.39 0 0 1 -2.55,4.23 c-2.55,1.17 -6.23,2.71 -7.9,2.71 s-5.35,-1.54 -7.9,-2.71 a4.39,4.39 0 0 1 -2.55,-4.23 l1.3,-25.6 l1.31,-24.07 a4.4,4.4 0 0 0 -3.14,-4.46 l-8.33,-2.47 l-0.3400000000000002,-0.09000000000000004 l-8.17,-1.73 a4.4,4.4 0 0 1 -3.49,-4.3 v-6.26 a4.4,4.4 0 0 1 4.4,-4.4 H201 a4.4,4.4 0 0 1 4.4,4.4 v6.26 a4.4,4.4 0 0 1 -3.48,4.3100000000000005 z" id="path12" fill="#fff"/><path class="cls-1" d="M235.83999999999997,85.87000083142533 a4.82,4.82 0 0 0 -4.82,4.82 v21.75 a4.82,4.82 0 0 1 -4.82,4.82 h-5.5600000000000005 a4.82,4.82 0 0 1 -4.82,-4.82 V45.79000083142532 a4.82,4.82 0 0 1 4.82,-4.82 h5.5600000000000005 a4.82,4.82 0 0 1 4.8,4.82 v21.26 a4.82,4.82 0 0 0 4.82,4.82 h0.08000000000000003 a4.82,4.82 0 0 0 3.74,-1.77 L262,42.730000831425315 a4.82,4.82 0 0 1 3.74,-1.77 H272 a4.82,4.82 0 0 1 3.66,8 l-22.41,26.08 a4.82,4.82 0 0 0 0,6.33 l24.57,27.92 a4.82,4.82 0 0 1 -3.62,8 h-6.8 a4.82,4.82 0 0 1 -3.6500000000000004,-1.6700000000000004 l-24.26,-28.06 a4.82,4.82 0 0 0 -3.6500000000000004,-1.6900000000000004 z" id="path14" fill="#fff"/><path class="cls-1" d="M343.46000000000004,117.27000083142534 H300.4 a7,7 0 0 1 -7,-7 v-62.33 a7,7 0 0 1 7,-7 H343 a7,7 0 0 1 7,7 a7,7 0 0 1 -7,7 h-27.4 a7,7 0 0 0 -7,7 v2.94 a7,7 0 0 0 7,7 h25.51 a7,7 0 0 1 7,7 a7,7 0 0 1 -7,7 H315.6 a7,7 0 0 0 -7,7 v3.6 a7,7 0 0 0 7,7 h27.85 a7,7 0 0 1 7,7 a7,7 0 0 1 -6.99,6.79 z" id="path16" fill="#fff"/><path class="cls-1" d="M398.28,40.96000083142533 c18.2,0 28,8.61 28,23.22 c0,11.13 -6.88,19.13 -18.69,21.77 a3,3 0 0 0 -1.6600000000000001,4.69 l16.79,21.86 a3,3 0 0 1 -2.35,4.77 h-10.9 a3,3 0 0 1 -2.39,-1.21 l-20.46,-27.93 a3,3 0 0 0 -2.39,-1.21 a3,3 0 0 0 -3,3 v24.43 a3,3 0 0 1 -3,3 H369 a3,3 0 0 1 -3,-3 v-70.42 a3,3 0 0 1 3,-3 zm-17.06,17 v12.76 a3,3 0 0 0 3,3 H398 c8.28,0 12.59,-3.05 12.59,-9.48 s-4.52,-9.21 -12.59,-9.21 h-13.81 a3,3 0 0 0 -2.9699999999999998,2.9 z" id="path18" fill="#fff"/><path class="cls-1" id="rect20" fill="#fff" d="M142.97,35.06999839001907 h62.36 v3.9 h-62.36 z"/><path class="cls-1" id="rect22" fill="#fff" d="M142.97,27.279998390019074 h62.36 v5.85 h-62.36 z"/><path class="cls-1" d="M204.45999999999998,8.314253250318883e-7 h-25 a0.8700000000000002,0.8700000000000002 0 0 0 -0.8500000000000002,0.7000000000000002 l-1.6500000000000004,8.21 a0.8700000000000002,0.8700000000000002 0 0 1 -1.7000000000000002,0 l-1.4,-8.16 a0.8700000000000002,0.8700000000000002 0 0 0 -0.8500000000000002,-0.7200000000000002 h-16.39 a0.8700000000000002,0.8700000000000002 0 0 0 -0.8500000000000002,0.7100000000000002 l-1.3900000000000001,7.45 a0.8700000000000002,0.8700000000000002 0 0 1 -1.7000000000000002,0 l-1.6800000000000004,-7.51 a0.8700000000000002,0.8700000000000002 0 0 0 -0.8500000000000002,-0.6800000000000004 h-6.34 a0.8700000000000002,0.8700000000000002 0 0 0 -0.8700000000000002,0.8700000000000002 v21.66 a0.8700000000000002,0.8700000000000002 0 0 0 0.8700000000000002,0.8700000000000002 h60.63 a0.8700000000000002,0.8700000000000002 0 0 0 0.8700000000000002,-0.8700000000000002 v-21.67 a0.8700000000000002,0.8700000000000002 0 0 0 -0.8500000000000002,-0.8600000000000002 zm0.8700000000000002,0 " id="path24" fill="#fff"/><text id="text32" fill="#fff" font-size="25.9" font-family="MarkOT-Book,Mark OT" letter-spacing=".86em" y="155.77999716931595" x="0" class="">MALERBE<tspan x="285.26" y="155.77999716931595" id="tspan26" letter-spacing=".84em">D</tspan> <tspan x="327.67" y="155.77999716931595" id="tspan28">AR</tspan> <tspan x="408.3" y="155.77999716931595" id="tspan30">F</tspan></text></g></svg>